<svg width="18" height="18" viewBox="0 0 18 18" fill="none" xmlns="http://www.w3.org/2000/svg">
<path fill-rule="evenodd" clip-rule="evenodd" d="M1 3.90909V14.0909C1 15.1453 1.82655 16 2.84615 16H15.1538C16.1734 16 17 15.1453 17 14.0909V3.90909C17 2.85473 16.1734 2 15.1538 2H2.84615C1.82655 2 1 2.85473 1 3.90909ZM12.0769 3.59091H2.84615C2.67622 3.59091 2.53846 3.73336 2.53846 3.90909V7.09091H4.69231C5.37204 7.09091 5.92308 7.66073 5.92308 8.36364V9.63636C5.92308 10.3393 5.37204 10.9091 4.69231 10.9091H2.53846V14.0909C2.53846 14.2666 2.67622 14.4091 2.84615 14.4091H12.0769V3.59091ZM13.6154 3.59091V14.4091H15.1538C15.3238 14.4091 15.4615 14.2666 15.4615 14.0909V3.90909C15.4615 3.73336 15.3238 3.59091 15.1538 3.59091H13.6154ZM2.53846 9.31818V8.68182H4.38462V9.31818H2.53846Z" fill="#272727"/>
</svg>
